<svg width="3786" height="1024" xmlns="http://www.w3.org/2000/svg">
 <!-- Created with Method Draw - http://github.com/duopixel/Method-Draw/ -->
 <g>
  <title>background</title>
  <rect fill="#fff" id="canvas_background" height="1026" width="3788" y="-1" x="-1"/>
  <g display="none" overflow="visible" y="0" x="0" height="100%" width="100%" id="canvasGrid">
   <rect fill="url(#gridpattern)" stroke-width="0" y="0" x="0" height="100%" width="100%"/>
  </g>
 </g>
 <g>
  <title>Layer 1</title>
  <text stroke="#000" transform="matrix(49.62601900946909,0,0,35.86512542169264,-4406.376017614147,-4398.62371023168) " xml:space="preserve" text-anchor="start" font-family="Helvetica, Arial, sans-serif" font-size="24" id="svg_1" y="145.252641" x="91.323891" stroke-width="0" fill="#000000">IT    Y</text>
  <path stroke="#000" id="svg_2" d="m1552.588955,203.133276c-7.642339,40.743622 14.003216,79.515555 30.899559,114.712717c35.997426,62.081727 77.761279,121.83337 130.172604,170.082699c35.761657,30.573434 67.983712,65.783353 108.477202,90.007269c52.93877,37.047259 109.781274,67.384862 168.722323,92.61443c43.826541,19.837479 89.787814,33.911029 136.746943,43.141352c13.658911,3.677313 51.847417,14.063024 28.090511,-10.30425c-19.706053,-8.641903 -40.669801,-14.947428 -60.484251,-23.960569c-96.190717,-41.019011 -198.404672,-77.059389 -276.004126,-151.895039c-12.85838,-17.735675 24.671811,9.579708 31.138606,17.070341c64.738266,47.869395 138.696524,79.966738 211.635034,111.671105c37.104615,12.76791 77.66376,39.984184 117.083605,20.670655c34.053215,-13.513962 -8.143621,-15.585504 -23.189555,-20.732695c-66.876303,-19.750097 -134.540579,-38.734921 -195.916326,-73.681807c-35.046471,-13.316773 -64.502056,-37.832526 -95.985875,-58.039211c-34.01364,-24.401999 -65.143682,-52.913616 -98.257013,-78.647712c-21.670203,-17.065736 -43.201081,-34.291105 -61.141685,-55.680381c-30.338708,-31.531433 -59.76196,-63.959341 -87.259866,-98.201049c-17.964508,-21.064346 -38.174405,-40.349788 -50.801972,-65.612192l-13.925718,-23.215662zm706.267085,397.956278c-4.146471,-0.135721 -8.427228,0.807004 -12.013233,3.289943c-26.775616,13.904593 -21.037995,39.727301 -36.338371,59.591037c-11.475295,15.890926 -24.863076,23.836461 -43.988503,29.795519c3.82508,7.94542 11.475213,19.86365 11.475213,29.795519c0,21.850013 -24.86302,41.713663 -43.988503,39.727301c-7.650215,-1.986362 -24.863076,-11.91823 -30.600723,0c-1.91254,3.97281 -1.91254,7.945506 0,9.931868c0,7.945506 9.562728,11.91823 17.212888,15.890926c21.037995,5.959058 43.988559,-1.986362 61.201474,-13.904593c13.38778,-7.94542 22.950508,-21.850013 26.775616,-37.741025l3.82508,-25.822708c1.91254,-7.94542 9.562755,-9.931868 19.125483,-23.836375c11.47524,-15.890926 22.950536,-43.700197 38.250911,-55.618342c5.737593,-3.972724 11.475213,-5.959144 19.125428,-7.945506c-3.82508,-5.959058 -7.650215,-9.931782 -11.475295,-15.89084c-3.82508,-1.986448 -7.650133,-5.959144 -11.475213,-5.959144c-2.151642,-0.74485 -4.62451,-1.222148 -7.11225,-1.303581zm80.984281,74.985387c-7.190243,-0.08292 -14.702703,1.551826 -22.23334,3.786519l15.300348,9.931868c-3.825163,7.94542 -13.387753,23.836375 -11.475295,33.768243c1.912623,19.86365 28.688183,19.86365 40.163478,7.94542c13.387835,-15.890926 13.387835,-39.727301 -5.737593,-51.645531c-5.020452,-2.607075 -10.425224,-3.722019 -16.017599,-3.786519zm-36.876309,9.745691c-1.497182,0.005492 -2.960491,0.020165 -4.422725,0.062068c-10.599029,0.603265 -21.193872,1.433467 -31.796013,1.924294c-6.661007,0.089127 -13.460265,-0.013529 -19.902468,1.986362c-8.738016,5.792531 -14.579544,15.39618 -17.9899,25.388201c-0.458981,1.440017 -0.848424,2.919563 -1.135583,4.407232c10.636428,5.003347 22.505352,4.467213 33.887893,4.03485c6.89708,-0.191526 13.796115,0.702518 20.679425,1.05525c4.923043,0.226421 9.83463,0.924648 14.762465,0.744936c6.042598,-0.208172 11.638332,-3.76644 14.822144,-9.062824c2.751986,-4.526564 5.355696,-9.208241 7.052571,-14.27706c1.370609,-4.549246 1.623756,-10.871619 -2.928572,-13.594193c-3.961816,-2.272392 -8.537746,-2.685991 -13.029293,-2.669144l0.000055,0.000029zm6.992809,45.686388c-1.912623,1.986362 -3.82508,1.986362 -5.737675,3.972724c-1.91254,9.931868 22.950591,33.768329 26.775643,11.91823c-9.562755,-3.972724 -15.300458,-7.945506 -21.037968,-15.890926l0,-0.000029z" stroke-width="1.5" fill="#000000"/>
 </g>
</svg>